<svg width="20" height="20" viewBox="0 0 20 20" fill="currentColor" xmlns="http://www.w3.org/2000/svg">
<path d="M15 7.66667H13V6.11111C13 5.28599 12.6839 4.49467 12.1213 3.91122C11.5587 3.32778 10.7956 3 10 3C9.20435 3 8.44129 3.32778 7.87868 3.91122C7.31607 4.49467 7 5.28599 7 6.11111V7.66667H5C4.73478 7.66667 4.48043 7.77593 4.29289 7.97041C4.10536 8.16489 4 8.42866 4 8.7037V15.963C4 16.238 4.10536 16.5018 4.29289 16.6963C4.48043 16.8907 4.73478 17 5 17H15C15.2652 17 15.5196 16.8907 15.7071 16.6963C15.8946 16.5018 16 16.238 16 15.963V8.7037C16 8.42866 15.8946 8.16489 15.7071 7.97041C15.5196 7.77593 15.2652 7.66667 15 7.66667ZM8 6.11111C8 5.56103 8.21071 5.03348 8.58579 4.64452C8.96086 4.25555 9.46957 4.03704 10 4.03704C10.5304 4.03704 11.0391 4.25555 11.4142 4.64452C11.7893 5.03348 12 5.56103 12 6.11111V7.66667H8V6.11111Z"/>
</svg>
