<svg width="24" height="24" viewBox="0 0 24 24" fill="none" xmlns="http://www.w3.org/2000/svg">
<path d="M14.031 4.71993L20.781 11.4699C20.8507 11.5396 20.906 11.6223 20.9438 11.7134C20.9815 11.8044 21.001 11.902 21.001 12.0006C21.001 12.0991 20.9815 12.1967 20.9438 12.2878C20.906 12.3788 20.8507 12.4615 20.781 12.5312L14.031 19.2812C13.8903 19.4219 13.6994 19.501 13.5004 19.501C13.3013 19.501 13.1105 19.4219 12.9697 19.2812C12.829 19.1405 12.7499 18.9496 12.7499 18.7506C12.7499 18.5515 12.829 18.3607 12.9697 18.2199L18.4401 12.7506H3.75037C3.55145 12.7506 3.36069 12.6715 3.22004 12.5309C3.07938 12.3902 3.00037 12.1995 3.00037 12.0006C3.00037 11.8016 3.07938 11.6109 3.22004 11.4702C3.36069 11.3296 3.55145 11.2506 3.75037 11.2506L18.4401 11.2506L12.9697 5.78118C12.829 5.64045 12.7499 5.44958 12.7499 5.25056C12.7499 5.05154 12.829 4.86066 12.9697 4.71993C13.1105 4.5792 13.3013 4.50014 13.5004 4.50014C13.6994 4.50014 13.8903 4.5792 14.031 4.71993Z" fill="#939AB2"/>
</svg>
