<svg width="144" height="121" viewBox="0 0 144 121" fill="none" xmlns="http://www.w3.org/2000/svg">
<path d="M43.5122 18.0837L25.4756 21.6307C25.4756 21.6307 19.061 11.0653 19.8156 8.49946C20.1175 7.44292 22.6079 5.93359 25.702 4.72612C30.0791 2.99039 35.5127 1.78292 37.3239 2.99038C40.4935 5.02799 43.5122 18.0837 43.5122 18.0837Z" fill="url(#paint0_linear_791_5717)"/>
<path d="M118.828 17.933L106.904 16.6501L100.716 15.9708C100.716 15.9708 102.15 2.23591 105.697 1.10391C107.131 0.726573 109.847 0.952978 112.715 1.55671C117.092 2.53778 121.771 4.42444 122.224 6.00924C122.828 8.72604 118.828 17.933 118.828 17.933Z" fill="url(#paint1_linear_791_5717)"/>
<path style="mix-blend-mode:multiply" opacity="0.5" d="M28.9471 20.8007L25.4756 21.6309C25.4756 21.6309 19.061 11.0655 19.8156 8.49965C20.1175 7.44312 22.6079 5.93379 25.702 4.72632C22.8343 6.08472 28.9471 20.8007 28.9471 20.8007Z" fill="url(#paint2_linear_791_5717)"/>
<path style="mix-blend-mode:multiply" opacity="0.5" d="M112.715 1.55671C109.395 1.10391 106.98 16.1972 106.904 16.65L100.716 15.9708C100.716 15.9708 102.15 2.23591 105.697 1.10391C107.131 0.726573 109.847 0.952978 112.715 1.55671Z" fill="url(#paint3_linear_791_5717)"/>
<path d="M130.525 110.304C130.374 110.405 130.223 110.505 130.072 110.606C125.997 112.946 111.13 115.285 94.1503 117.096C93.9993 117.096 93.9239 117.096 93.9239 117.096C93.1692 117.146 92.3894 117.222 91.5844 117.323C82.9812 118.228 73.9252 118.907 65.5484 119.511C48.8703 120.568 34.758 120.87 31.6639 119.964C23.5889 117.7 6.75985 108.644 1.92998 81.4004C-2.82443 54.157 8.49558 28.6492 13.099 26.2343C42.0028 11.1409 130.148 13.8577 135.129 22.9892C137.091 26.6871 138.6 38.158 139.128 51.742C139.128 51.893 139.128 52.069 139.128 52.2703C139.128 52.3709 139.128 52.4715 139.128 52.5722C139.179 52.8237 139.204 53.0753 139.204 53.3268C139.204 53.3268 139.204 53.352 139.204 53.4023C139.959 76.646 137.846 105.097 130.525 110.304Z" fill="url(#paint4_linear_791_5717)"/>
<path style="mix-blend-mode:multiply" opacity="0.8" d="M65.5485 119.511C48.8703 120.567 34.7581 120.869 31.6639 119.964C23.589 117.7 6.75993 108.644 1.93006 81.4003C-2.82434 54.1568 8.42019 28.6491 13.0991 26.2341C9.02392 31.4413 9.09939 107.587 31.8903 116.568C38.9842 119.36 51.5117 120.039 65.5485 119.511Z" fill="url(#paint5_linear_791_5717)"/>
<path d="M123.96 100.569C121.771 103.965 109.244 106.606 94.1504 108.116C94.1001 108.116 94.0497 108.116 93.9994 108.116C70.3784 110.455 40.6445 110.002 35.2109 105.474C27.2114 98.7577 22.5325 49.6289 24.1927 36.4222C24.4191 34.9883 24.6455 34.0073 24.9474 33.5545C26.2303 31.5169 35.4373 29.5547 47.7383 27.9699C47.7887 27.9699 47.839 27.9699 47.8893 27.9699C75.2837 24.6494 117.998 23.5929 123.658 29.2529C123.758 29.3535 123.859 29.4541 123.96 29.5547C130.148 38.2334 129.393 91.7393 123.96 100.569Z" fill="url(#paint6_linear_791_5717)"/>
<path d="M121.998 101.173C120.035 104.191 109.847 106.531 96.9426 108.116C96.8923 108.116 96.8671 108.116 96.8671 108.116C72.265 110.455 41.3236 110.002 35.6636 105.474C26.4567 98.0785 21.4759 38.8371 25.0228 33.5544C26.3812 31.5168 35.89 29.5547 48.7194 28.0454C48.7697 27.9951 48.82 27.9699 48.8703 27.9699C77.774 25.1022 117.771 24.5739 121.998 30.2339C128.488 38.9126 127.658 92.343 121.998 101.173Z" fill="url(#paint7_linear_791_5717)"/>
<path d="M43.3612 94.7578C42.355 94.5566 41.2733 94.305 40.1161 94.0032C25.0982 89.7016 29.5508 66.6842 43.2857 63.5146C44.0404 63.3134 44.8454 63.1876 45.7007 63.1373C60.6431 62.3826 65.6239 98.0784 43.3612 94.7578Z" fill="url(#paint8_linear_791_5717)"/>
<path d="M43.3612 94.7579C42.355 94.5566 41.2733 94.3051 40.1161 94.0032C25.0982 89.7016 29.5508 66.6842 43.2857 63.5146C54.5303 66.7597 58.0017 92.1165 43.3612 94.7579Z" fill="url(#paint9_linear_791_5717)"/>
<path d="M39.8898 90.7581C39.1351 90.6575 38.3553 90.4814 37.5503 90.2299C26.6831 87.1357 29.8527 70.533 39.7388 68.269C47.8892 70.6085 50.3796 88.8715 39.8898 90.7581Z" fill="white"/>
<path d="M115.281 89.7772C112.64 90.6828 110.451 90.9092 108.64 90.5318C98.0746 88.4188 99.282 68.0428 106.225 61.8545C107.583 60.647 109.168 59.9678 110.904 60.0433C123.13 60.8734 127.733 85.4001 115.281 89.7772Z" fill="url(#paint10_linear_791_5717)"/>
<path d="M110.828 89.9281C110.074 90.1797 109.344 90.3809 108.64 90.5318C98.0746 88.4188 99.282 68.0428 106.225 61.8545C106.376 61.8545 106.552 61.8545 106.753 61.8545C118.3 62.6092 122.601 85.702 110.828 89.9281Z" fill="url(#paint11_linear_791_5717)"/>
<path d="M107.432 86.2301C106.98 86.4565 105.395 86.1546 104.942 86.2301C100.112 85.0226 99.2066 70.9858 103.659 67.0615C103.735 67.0615 104.942 67.0615 105.018 67.0615C112.413 67.5143 114.979 83.5887 107.432 86.2301Z" fill="white"/>
<path d="M75.2837 86.0791C74.68 86.6828 78.3024 93.3994 82.8304 94.3804C87.3584 95.286 90.4525 85.3244 90.2261 85.098C89.9997 84.7962 88.1131 88.7959 83.2832 89.0978C78.6043 89.3242 75.7365 85.5508 75.2837 86.0791Z" fill="url(#paint12_linear_791_5717)"/>
<path d="M33.626 40.6482C32.1167 42.3085 43.0594 36.1957 49.3231 34.9128C49.3231 34.9128 43.1348 29.7056 33.626 40.6482Z" fill="url(#paint13_linear_791_5717)"/>
<path d="M120.337 40.9501C121.771 42.7613 111.13 35.9693 104.942 34.3845C104.942 34.3845 111.432 29.5546 120.337 40.9501Z" fill="url(#paint14_linear_791_5717)"/>
<path d="M36.4182 106.229C36.4182 106.229 46.6817 111.587 78.3022 110.304C109.998 109.097 120.941 102.757 120.941 102.757C120.941 102.757 108.413 108.115 82.7548 109.097C57.0961 110.153 36.4182 106.229 36.4182 106.229Z" fill="#94ADFF"/>
<path d="M85.7735 16.6499C79.8116 18.763 86.1509 26.8379 98.8293 24.6494C111.583 22.4609 111.734 18.9894 111.734 18.9894C111.734 18.9894 89.8487 15.1406 85.7735 16.6499Z" fill="#782B6C"/>
<path d="M105.697 1.10373C105.697 1.10373 118.149 2.68853 122.224 6.00907C122.224 6.00907 121.847 2.46213 115.734 1.10373C109.546 -0.254667 105.697 1.10373 105.697 1.10373Z" fill="#8550A6"/>
<path d="M19.8156 8.49938C19.8156 8.49938 23.1361 5.17884 27.966 3.89591C32.7958 2.68844 36.871 2.76391 36.871 2.76391C36.871 2.76391 36.1918 1.85831 29.9281 2.53751C23.5889 3.14124 19.8156 7.21645 19.8156 8.49938Z" fill="#8550A6"/>
<path style="mix-blend-mode:multiply" opacity="0.8" d="M9.55218 30.4602C9.55218 30.4602 3.89218 56.1189 9.55218 83.9661C15.2876 111.813 25.4002 117.398 25.4002 117.398C25.4002 117.398 12.7972 105.474 9.32578 79.5136C5.92977 53.553 9.55218 30.4602 9.55218 30.4602Z" fill="url(#paint15_linear_791_5717)"/>
<path style="mix-blend-mode:multiply" opacity="0.8" d="M123.658 29.2529L122.601 31.2905C122.601 31.2905 114.149 27.2907 78.6797 27.6681C43.2104 28.0454 24.1927 36.4222 24.1927 36.4222C24.4191 34.9883 24.6455 34.0073 24.9474 33.5545C26.2304 31.5169 35.4373 29.5547 47.7384 27.9699C47.7887 27.9699 47.839 27.9699 47.8893 27.9699C75.2837 24.6494 117.998 23.5929 123.658 29.2529Z" fill="url(#paint16_linear_791_5717)"/>
<g style="mix-blend-mode:soft-light">
<path d="M25.4001 39.2897C27.2868 35.2145 45.6252 28.7998 80.7172 28.347C115.809 27.8942 121.771 31.4412 122.979 33.8561C124.262 36.271 125.318 54.6095 124.639 56.5716C123.884 58.6092 107.508 54.1567 105.697 52.7983C103.961 51.5153 109.395 36.2711 89.3204 32.1204C69.2463 27.9697 37.173 31.6676 25.4001 39.2897Z" fill="#A0D3FF"/>
</g>
<path style="mix-blend-mode:multiply" opacity="0.8" d="M32.0413 99.5123C32.0413 99.5123 48.493 111.889 84.0378 108.04C119.658 104.191 123.884 95.9653 123.884 95.9653C123.884 95.9653 124.262 101.323 121.771 102.38C119.205 103.437 104.565 108.795 78.6797 109.247C52.7946 109.776 37.7013 106.908 35.6637 105.474C33.7015 104.04 32.0413 99.5123 32.0413 99.5123Z" fill="url(#paint17_linear_791_5717)"/>
<path d="M7.28814 49.3269C7.28814 49.3269 5.17507 63.0618 7.28814 79.5136C9.32574 95.9653 18.4572 109.323 18.4572 109.323C18.4572 109.323 5.85427 89.6261 7.28814 49.3269Z" fill="url(#paint18_linear_791_5717)"/>
<path style="mix-blend-mode:multiply" opacity="0.5" d="M130.525 110.304C130.374 110.405 130.223 110.505 130.072 110.606C125.997 112.946 111.13 115.285 94.1503 117.096C96.1879 116.719 121.469 114.304 129.997 106.606C138.6 98.9087 139.43 64.2695 139.204 53.4023C139.959 76.6461 137.845 105.097 130.525 110.304Z" fill="url(#paint19_linear_791_5717)"/>
<path style="mix-blend-mode:screen" d="M79.5853 80.4948C79.5853 100.946 62.9826 117.473 42.6066 117.473C22.1551 117.473 5.62793 100.946 5.62793 80.4948C5.62793 60.0433 22.1551 43.5161 42.6066 43.5161C62.9826 43.5161 79.5853 60.0433 79.5853 80.4948Z" fill="url(#paint20_radial_791_5717)"/>
<path style="mix-blend-mode:screen" d="M62.7561 80.4948C62.7561 91.6639 53.7001 100.72 42.6065 100.72C31.4375 100.72 22.3815 91.6639 22.3815 80.4948C22.3815 69.3257 31.4375 60.3452 42.6065 60.3452C53.7001 60.3452 62.7561 69.3257 62.7561 80.4948Z" fill="url(#paint21_radial_791_5717)"/>
<path style="mix-blend-mode:screen" d="M143.732 76.7213C143.732 97.3237 127.054 114.077 106.376 114.077C85.6981 114.077 68.9445 97.3237 68.9445 76.7213C68.9445 56.0434 85.6981 39.2898 106.376 39.2898C127.054 39.2898 143.732 56.0434 143.732 76.7213Z" fill="url(#paint22_radial_791_5717)"/>
<path style="mix-blend-mode:screen" d="M126.752 76.7212C126.752 87.9658 117.62 97.0973 106.376 97.0973C95.1313 97.0973 85.9999 87.9658 85.9999 76.7212C85.9999 65.4012 95.1313 56.2698 106.376 56.2698C117.62 56.2698 126.752 65.4012 126.752 76.7212Z" fill="url(#paint23_radial_791_5717)"/>
<path d="M84.2642 28.3474C84.2642 28.3474 88.7167 30.7623 95.2823 30.8378C99.0556 30.8378 101.622 28.3474 101.622 28.3474C101.622 28.3474 93.4711 26.7626 84.2642 28.3474Z" fill="white"/>
<g style="mix-blend-mode:soft-light">
<path d="M94.1503 35.5167C86.0753 36.2713 91.358 44.4217 97.4708 42.686C103.508 41.0257 98.9047 35.0639 94.1503 35.5167Z" fill="white"/>
</g>
<path d="M0.79802 61.8545C0.79802 61.8545 -1.46599 75.8913 3.36388 92.0412C8.19375 108.116 20.4194 114.304 20.4194 114.304C20.4194 114.304 -1.23958 99.5878 0.79802 61.8545Z" fill="#00F7FF"/>
<path d="M19.8156 8.49951C19.8156 8.49951 18.6081 13.4803 25.4756 21.6307C25.4756 21.6307 20.4193 11.2163 19.8156 8.49951Z" fill="#00F7FF"/>
<defs>
<linearGradient id="paint0_linear_791_5717" x1="23.9097" y1="21.6344" x2="23.9097" y2="2.50966" gradientUnits="userSpaceOnUse">
<stop stop-color="#121936"/>
<stop offset="1" stop-color="#471037"/>
</linearGradient>
<linearGradient id="paint1_linear_791_5717" x1="104.769" y1="17.9254" x2="104.769" y2="0.910713" gradientUnits="userSpaceOnUse">
<stop stop-color="#121936"/>
<stop offset="1" stop-color="#471037"/>
</linearGradient>
<linearGradient id="paint2_linear_791_5717" x1="8.8141" y1="21.6346" x2="8.8141" y2="4.73688" gradientUnits="userSpaceOnUse">
<stop stop-color="#6D33B0"/>
<stop offset="1" stop-color="#CE8EB5"/>
</linearGradient>
<linearGradient id="paint3_linear_791_5717" x1="96.4098" y1="16.6244" x2="96.4098" y2="0.910713" gradientUnits="userSpaceOnUse">
<stop stop-color="#6D33B0"/>
<stop offset="1" stop-color="#CE8EB5"/>
</linearGradient>
<linearGradient id="paint4_linear_791_5717" x1="30.2775" y1="120.503" x2="30.2775" y2="15.5233" gradientUnits="userSpaceOnUse">
<stop stop-color="#121936"/>
<stop offset="1" stop-color="#471037"/>
</linearGradient>
<linearGradient id="paint5_linear_791_5717" x1="-32.0458" y1="116.738" x2="-26.9942" y2="24.0245" gradientUnits="userSpaceOnUse">
<stop stop-color="#6D33B0"/>
<stop offset="1" stop-color="#CE8EB5"/>
</linearGradient>
<linearGradient id="paint6_linear_791_5717" x1="42.1214" y1="109.491" x2="42.1214" y2="25.238" gradientUnits="userSpaceOnUse">
<stop stop-color="#100040"/>
<stop offset="0.233" stop-color="#360240"/>
<stop offset="1" stop-color="#110540"/>
</linearGradient>
<linearGradient id="paint7_linear_791_5717" x1="41.178" y1="109.491" x2="41.178" y2="25.8908" gradientUnits="userSpaceOnUse">
<stop stop-color="#00B7FF"/>
<stop offset="1" stop-color="#003BB0"/>
</linearGradient>
<linearGradient id="paint8_linear_791_5717" x1="26.3917" y1="94.9458" x2="26.3917" y2="63.1479" gradientUnits="userSpaceOnUse">
<stop stop-color="#2CFFEF"/>
<stop offset="1" stop-color="#2EAEFF"/>
</linearGradient>
<linearGradient id="paint9_linear_791_5717" x1="20.0661" y1="94.7262" x2="20.0661" y2="63.4935" gradientUnits="userSpaceOnUse">
<stop stop-color="#00FFFF"/>
<stop offset="1" stop-color="#2EFFFF"/>
</linearGradient>
<linearGradient id="paint10_linear_791_5717" x1="90.1732" y1="90.7062" x2="90.1732" y2="60.0546" gradientUnits="userSpaceOnUse">
<stop stop-color="#2CFFEF"/>
<stop offset="1" stop-color="#2EAEFF"/>
</linearGradient>
<linearGradient id="paint11_linear_791_5717" x1="85.0566" y1="90.5258" x2="85.0566" y2="61.8311" gradientUnits="userSpaceOnUse">
<stop stop-color="#00FFFF"/>
<stop offset="1" stop-color="#2EFFFF"/>
</linearGradient>
<linearGradient id="paint12_linear_791_5717" x1="79.8291" y1="94.4076" x2="79.8291" y2="85.046" gradientUnits="userSpaceOnUse">
<stop stop-color="#2CFFEF"/>
<stop offset="1" stop-color="#2EAEFF"/>
</linearGradient>
<linearGradient id="paint13_linear_791_5717" x1="39.7449" y1="40.9199" x2="39.7449" y2="33.6713" gradientUnits="userSpaceOnUse">
<stop stop-color="#2C83EF"/>
<stop offset="1" stop-color="#2E6BFF"/>
</linearGradient>
<linearGradient id="paint14_linear_791_5717" x1="114.204" y1="40.9026" x2="114.597" y2="33.6645" gradientUnits="userSpaceOnUse">
<stop stop-color="#2C83EF"/>
<stop offset="1" stop-color="#2E6BFF"/>
</linearGradient>
<linearGradient id="paint15_linear_791_5717" x1="7.0414" y1="30.4542" x2="25.3647" y2="30.4542" gradientUnits="userSpaceOnUse">
<stop stop-color="#AE33B0"/>
<stop offset="1" stop-color="#CE8EB5"/>
</linearGradient>
<linearGradient id="paint16_linear_791_5717" x1="24.2124" y1="25.238" x2="123.644" y2="25.238" gradientUnits="userSpaceOnUse">
<stop stop-color="#CE8EB5"/>
<stop offset="1" stop-color="#6D33B0"/>
</linearGradient>
<linearGradient id="paint17_linear_791_5717" x1="32.0156" y1="95.9427" x2="123.905" y2="95.9427" gradientUnits="userSpaceOnUse">
<stop stop-color="#CE8EB5"/>
<stop offset="1" stop-color="#6D33B0"/>
</linearGradient>
<linearGradient id="paint18_linear_791_5717" x1="-135.977" y1="109.336" x2="-135.977" y2="49.3141" gradientUnits="userSpaceOnUse">
<stop stop-color="#121936"/>
<stop offset="1" stop-color="#47073A"/>
</linearGradient>
<linearGradient id="paint19_linear_791_5717" x1="71.9238" y1="117.063" x2="71.9238" y2="53.425" gradientUnits="userSpaceOnUse">
<stop stop-color="#6D33B0"/>
<stop offset="1" stop-color="#CE8EB5"/>
</linearGradient>
<radialGradient id="paint20_radial_791_5717" cx="0" cy="0" r="1" gradientUnits="userSpaceOnUse" gradientTransform="translate(42.581 80.5061) scale(36.99 36.99)">
<stop stop-color="#004AEF"/>
<stop offset="0.371" stop-color="#1E0DB8"/>
<stop offset="1"/>
</radialGradient>
<radialGradient id="paint21_radial_791_5717" cx="0" cy="0" r="1" gradientUnits="userSpaceOnUse" gradientTransform="translate(42.5809 80.5061) scale(20.1775 20.1775)">
<stop stop-color="#004AEF"/>
<stop offset="0.371" stop-color="#1E0DB8"/>
<stop offset="1"/>
</radialGradient>
<radialGradient id="paint22_radial_791_5717" cx="0" cy="0" r="1" gradientUnits="userSpaceOnUse" gradientTransform="translate(106.368 76.6843) scale(37.3907)">
<stop stop-color="#004AEF"/>
<stop offset="0.371" stop-color="#1E0DB8"/>
<stop offset="1"/>
</radialGradient>
<radialGradient id="paint23_radial_791_5717" cx="0" cy="0" r="1" gradientUnits="userSpaceOnUse" gradientTransform="translate(106.368 76.6835) scale(20.3964)">
<stop stop-color="#004AEF"/>
<stop offset="0.371" stop-color="#1E0DB8"/>
<stop offset="1"/>
</radialGradient>
</defs>
</svg>
