<svg width="18" height="19" viewBox="0 0 18 19" fill="currentColor" xmlns="http://www.w3.org/2000/svg">
<path d="M16.1478 5.96054L7.14779 14.9605C7.09555 15.0128 7.03352 15.0543 6.96523 15.0826C6.89694 15.1109 6.82375 15.1255 6.74983 15.1255C6.6759 15.1255 6.60271 15.1109 6.53442 15.0826C6.46613 15.0543 6.4041 15.0128 6.35186 14.9605L2.41436 11.023C2.30881 10.9175 2.24951 10.7743 2.24951 10.6251C2.24951 10.4758 2.30881 10.3326 2.41436 10.2271C2.5199 10.1216 2.66306 10.0623 2.81232 10.0623C2.96159 10.0623 3.10475 10.1216 3.21029 10.2271L6.74983 13.7673L15.3519 5.1646C15.4574 5.05905 15.6006 4.99976 15.7498 4.99976C15.8991 4.99976 16.0422 5.05905 16.1478 5.1646C16.2533 5.27015 16.3126 5.4133 16.3126 5.56257C16.3126 5.71184 16.2533 5.85499 16.1478 5.96054Z"/>
</svg>
