<svg width="24" height="24" viewBox="0 0 24 24" fill="none" xmlns="http://www.w3.org/2000/svg">
<path d="M9.97011 19.281L3.22011 12.531C3.15038 12.4614 3.09505 12.3787 3.05731 12.2876C3.01957 12.1966 3.00014 12.099 3.00014 12.0004C3.00014 11.9019 3.01957 11.8043 3.05731 11.7132C3.09505 11.6222 3.15038 11.5394 3.22011 11.4698L9.97011 4.71979C10.1108 4.57906 10.3017 4.5 10.5007 4.5C10.6998 4.5 10.8906 4.57906 11.0314 4.71979C11.1721 4.86052 11.2512 5.05139 11.2512 5.25042C11.2512 5.44944 11.1721 5.64031 11.0314 5.78104L5.56104 11.2504H20.2507C20.4496 11.2504 20.6404 11.3294 20.7811 11.4701C20.9217 11.6107 21.0007 11.8015 21.0007 12.0004C21.0007 12.1993 20.9217 12.3901 20.7811 12.5307C20.6404 12.6714 20.4496 12.7504 20.2507 12.7504L5.56104 12.7504L11.0314 18.2198C11.1721 18.3605 11.2512 18.5514 11.2512 18.7504C11.2512 18.9494 11.1721 19.1403 11.0314 19.281C10.8906 19.4218 10.6998 19.5008 10.5007 19.5008C10.3017 19.5008 10.1108 19.4218 9.97011 19.281Z" fill="#939AB2"/>
</svg>
