<svg width="25" height="24" viewBox="0 0 25 24" fill="none" xmlns="http://www.w3.org/2000/svg">
    <path d="M12.5 22V18" stroke="#EEF0F2" stroke-linecap="round" stroke-linejoin="round" />
    <path
        d="M9.09238 7.43436C10.0639 7.79137 11.2369 8 12.5 8C13.7631 8 14.9361 7.79137 15.9076 7.43436C16.5441 7.20048 16.6801 6.43408 16.2553 5.91561L13.3887 2.41707C12.9331 1.86098 12.0669 1.86098 11.6113 2.41707L8.74472 5.91561C8.31991 6.43408 8.45593 7.20048 9.09238 7.43436Z"
        stroke="#EEF0F2" stroke-linecap="round" stroke-linejoin="round" />
    <path
        d="M15.2898 7.62305L17.7408 10.4446C18.174 10.9434 18.0554 11.7064 17.4511 11.9898C16.1018 12.6226 14.5495 12.9999 12.5 12.9999C10.4505 12.9999 8.89815 12.6226 7.54891 11.9898C6.94464 11.7064 6.826 10.9434 7.25921 10.4446L9.71022 7.62305"
        stroke="#EEF0F2" stroke-linecap="round" stroke-linejoin="round" />
    <path
        d="M8.14436 12.3418L5.76271 15.0154C5.34523 15.484 5.42927 16.2074 5.9867 16.504C7.73841 17.4362 10.0134 17.9992 12.5 17.9992C14.9866 17.9992 17.2616 17.4362 19.0133 16.504C19.5707 16.2074 19.6548 15.484 19.2373 15.0154L16.8556 12.3418"
        stroke="#EEF0F2" stroke-linecap="round" stroke-linejoin="round" />
    <path d="M10.5 22H14.5" stroke="#EEF0F2" stroke-linecap="round" stroke-linejoin="round" />
</svg>