<svg width="33" height="18" viewBox="0 0 33 18" fill="currentColor"
    xmlns="http://www.w3.org/2000/svg">
    <path
        d="M15.4848 1.68768C16.0969 2.1652 16.0969 2.1652 16.8376 2.2652C17.3327 2.12296 17.7494 1.75123 18.1588 1.45123C19.4198 0.528005 20.7776 -0.170645 22.3888 0.0366747C23.1822 0.163877 23.9119 0.486 24.632 0.831031C24.6794 0.853698 24.7267 0.876365 24.7756 0.899719C26.382 1.68807 27.9048 2.79664 29.3026 3.90731C29.4284 4.00722 29.5549 4.10605 29.6818 4.20453C30.3569 4.72956 31.0159 5.27288 31.6627 5.83234C31.7816 5.93513 31.9012 6.03611 32.0227 6.13583C32.4076 6.45472 32.618 6.71671 32.668 7.22632C32.6489 7.75417 32.3139 8.11404 31.9899 8.5007C31.9616 8.53487 31.9332 8.56904 31.9041 8.60425C31.7638 8.77299 31.6216 8.93994 31.4781 9.10598C31.2959 9.31832 31.1244 9.53825 30.9532 9.75949C30.6701 10.1242 30.3694 10.4678 30.0569 10.8078C29.9838 10.8907 29.9111 10.9738 29.8386 11.0573C29.5821 11.3513 29.3213 11.6412 29.0592 11.9302C29.0308 11.9619 29.0024 11.9935 28.9731 12.0261C28.5267 12.523 28.061 12.9823 27.5627 13.4267C27.4881 13.4966 27.4881 13.4966 27.4121 13.5678C25.6256 15.2318 23.3388 16.5579 21.0154 17.2928C20.9736 17.3064 20.9319 17.32 20.8888 17.334C17.3436 18.4846 13.4373 18.1086 10.1033 16.4821C10.0534 16.4582 10.0036 16.4342 9.95227 16.4095C8.71579 15.8084 7.54811 15.0492 6.48667 14.175C6.4545 14.1491 6.42232 14.1231 6.38918 14.0964C5.7969 13.6167 5.25702 13.0831 4.71735 12.546C4.68255 12.5115 4.64775 12.477 4.6119 12.4415C4.2145 12.047 3.8381 11.6482 3.49064 11.2084C3.36477 11.0521 3.23232 10.9045 3.09611 10.7572C2.87746 10.5173 2.67505 10.2692 2.47646 10.0128C2.2397 9.70716 1.99653 9.40904 1.74379 9.11645C1.71287 9.08064 1.68196 9.04482 1.65011 9.00793C1.58849 8.9366 1.52685 8.86529 1.4652 8.79399C1.31545 8.62041 1.16674 8.44598 1.01891 8.27076C0.968516 8.21136 0.918118 8.15196 0.866193 8.09076C0.609069 7.75602 0.660289 7.3453 0.687653 6.94182C0.790286 6.63932 0.954975 6.47165 1.18649 6.25592C1.25147 6.18839 1.31642 6.12084 1.38135 6.05326C1.6391 5.79607 1.92028 5.57136 2.20387 5.34352C2.31846 5.25046 2.43175 5.15597 2.54491 5.06118C3.17173 4.53723 3.81568 4.04087 4.47298 3.55577C4.59926 3.46234 4.72492 3.36818 4.85034 3.27359C8.31226 0.67643 11.6176 -1.21134 15.4848 1.68768ZM9.23309 2.32219C9.10973 2.3877 8.98549 2.45121 8.86103 2.51462C7.55375 3.19658 6.31538 4.08752 5.15383 4.99259C5.05126 5.07213 4.9478 5.15034 4.844 5.22828C4.37104 5.58482 3.92028 5.9632 3.47372 6.35201C3.29407 6.50796 3.11322 6.6625 2.93243 6.81711C2.98162 6.95189 2.98162 6.95189 3.10659 6.98024C3.245 7.00431 3.3726 7.01249 3.51302 7.01301C3.59238 7.01332 3.59238 7.01332 3.67333 7.01364C3.73058 7.01341 3.78783 7.01318 3.84681 7.01295C3.93753 7.01271 3.93753 7.01271 4.03008 7.01246C4.75399 7.00737 5.47575 6.96876 6.19828 6.92623C6.30625 6.92001 6.30625 6.92001 6.4164 6.91365C7.63459 6.84271 8.8462 6.73991 10.059 6.6066C10.7237 6.53363 11.3889 6.46436 12.0539 6.39428C12.2879 6.36953 12.5218 6.3445 12.7557 6.31941C12.9019 6.30385 13.0481 6.28828 13.1942 6.27272C13.2595 6.26565 13.3248 6.25858 13.3921 6.2513C14.1534 6.17064 14.9111 6.12142 15.6767 6.11635C15.7538 6.11574 15.8309 6.11513 15.9103 6.1145C16.1597 6.11293 16.409 6.11208 16.6583 6.11172C16.7226 6.11161 16.7226 6.11161 16.7883 6.1115C18.2913 6.10976 19.7692 6.18837 21.2628 6.35928C21.8553 6.42617 22.4485 6.48775 23.0414 6.55062C23.197 6.56713 23.3526 6.58371 23.5082 6.60034C24.6722 6.72464 25.8316 6.83087 27.0015 6.87947C27.0801 6.88289 27.1588 6.88632 27.2398 6.88985C28.2829 6.93395 29.3247 6.95141 30.3686 6.94182C30.3875 6.75797 30.3875 6.75797 30.2902 6.65148C29.6025 5.9724 28.8015 5.42255 28.0174 4.86219C27.8788 4.76257 27.7412 4.66184 27.6038 4.56064C24.7319 2.34124 24.7319 2.34124 21.3272 1.57929C20.4005 1.74606 19.6178 2.30062 18.8874 2.86425C18.1047 3.46347 17.2937 3.93465 16.2764 3.82407C15.4379 3.663 14.7268 3.10342 14.0589 2.60035C12.4378 1.38405 10.9903 1.38459 9.23309 2.32219ZM14.9046 7.63552C14.8043 7.64135 14.8043 7.64135 14.7019 7.6473C13.4621 7.7205 12.225 7.81963 10.9878 7.92731C10.8497 7.93932 10.7117 7.95126 10.5736 7.96319C9.67168 8.04143 8.77031 8.12466 7.87041 8.224C7.7694 8.23473 7.7694 8.23473 7.66634 8.24568C7.60464 8.25275 7.54294 8.25982 7.47937 8.26711C7.42583 8.2731 7.37229 8.2791 7.31712 8.28527C7.16755 8.31462 7.05543 8.36383 6.92315 8.43834C11.6661 10.9982 17.0459 11.5283 22.1619 10.0049C24.379 9.37269 24.379 9.37269 26.4403 8.37599C26.4403 8.35541 26.4403 8.33483 26.4403 8.31363C24.2658 8.02441 22.0817 7.84969 19.893 7.70957C19.834 7.70578 19.7751 7.70199 19.7143 7.69809C18.1035 7.5956 16.5168 7.54075 14.9046 7.63552ZM3.18185 8.37599C3.4008 9.01015 4.00305 9.52884 4.45467 10.014C4.57611 10.1464 4.69512 10.2809 4.81453 10.4152C5.12321 10.7587 5.44629 11.0861 5.77348 11.4119C5.82923 11.4679 5.88497 11.5239 5.9424 11.5815C6.25922 11.8979 6.58215 12.2014 6.92315 12.4914C6.98757 12.5476 7.05196 12.6037 7.11631 12.66C9.37126 14.597 12.0704 15.952 15.0293 16.3574C15.1457 16.3736 15.1457 16.3736 15.2644 16.3901C15.6983 16.4436 16.136 16.435 16.5726 16.4354C16.6458 16.4354 16.6458 16.4354 16.7206 16.4355C17.4809 16.4345 18.2132 16.399 18.9577 16.2327C19.0094 16.2214 19.0612 16.21 19.1145 16.1983C21.7003 15.6176 24.09 14.3831 26.0661 12.6161C26.1187 12.5697 26.1713 12.5232 26.2254 12.4753C26.3813 12.3364 26.5357 12.196 26.6897 12.0549C26.7219 12.0256 26.754 11.9962 26.7872 11.966C27.3156 11.4834 27.8376 11.0015 28.3043 10.4578C28.4423 10.3015 28.5841 10.1495 28.7268 9.99749C29.2058 9.48723 29.686 8.97266 30.0569 8.37599C29.6899 8.48293 29.3582 8.65267 29.0163 8.82027C25.556 10.4939 21.907 12.149 18.0223 12.4291C17.9667 12.4332 17.9111 12.4374 17.8537 12.4417C16.2575 12.5536 14.6628 12.4416 13.0963 12.1173C13.029 12.1034 12.9617 12.0895 12.8923 12.0752C10.1404 11.4918 7.59018 10.3692 5.0525 9.1866C4.8105 9.07392 4.56847 8.96131 4.3263 8.84899C4.1882 8.78489 4.0502 8.72057 3.91232 8.65599C3.85188 8.62789 3.79144 8.5998 3.72916 8.57085C3.67723 8.54657 3.6253 8.5223 3.5718 8.49729C3.44218 8.44292 3.319 8.40559 3.18185 8.37599Z"
         />
</svg>