<svg width="25" height="24" viewBox="0 0 25 24" fill="currentColor" xmlns="http://www.w3.org/2000/svg">
<path d="M20.5306 9.53055L13.0306 17.0306C12.9609 17.1003 12.8782 17.1556 12.7871 17.1933C12.6961 17.2311 12.5985 17.2505 12.4999 17.2505C12.4014 17.2505 12.3038 17.2311 12.2127 17.1933C12.1217 17.1556 12.039 17.1003 11.9693 17.0306L4.4693 9.53055C4.32857 9.38982 4.24951 9.19895 4.24951 8.99993C4.24951 8.80091 4.32857 8.61003 4.4693 8.4693C4.61003 8.32857 4.80091 8.24951 4.99993 8.24951C5.19895 8.24951 5.38982 8.32857 5.53055 8.4693L12.4999 15.4396L19.4693 8.4693C19.539 8.39962 19.6217 8.34435 19.7128 8.30663C19.8038 8.26892 19.9014 8.24951 19.9999 8.24951C20.0985 8.24951 20.1961 8.26892 20.2871 8.30663C20.3781 8.34435 20.4609 8.39962 20.5306 8.4693C20.6002 8.53899 20.6555 8.62171 20.6932 8.71276C20.7309 8.8038 20.7503 8.90138 20.7503 8.99993C20.7503 9.09847 20.7309 9.19606 20.6932 9.2871C20.6555 9.37815 20.6002 9.46087 20.5306 9.53055Z" />
</svg>
