<svg width="20" height="20" viewBox="0 0 20 20" fill="none" xmlns="http://www.w3.org/2000/svg">
<path d="M19.1008 17.7743C19.1879 17.8614 19.257 17.9648 19.3042 18.0786C19.3513 18.1924 19.3756 18.3144 19.3756 18.4375C19.3756 18.5607 19.3513 18.6827 19.3042 18.7965C19.257 18.9103 19.1879 19.0137 19.1008 19.1008C19.0137 19.1879 18.9103 19.257 18.7965 19.3042C18.6827 19.3513 18.5607 19.3756 18.4375 19.3756C18.3144 19.3756 18.1924 19.3513 18.0786 19.3042C17.9648 19.257 17.8614 19.1879 17.7743 19.1008L10 11.3254L2.22581 19.1008C2.0499 19.2767 1.81131 19.3756 1.56253 19.3756C1.31375 19.3756 1.07516 19.2767 0.899252 19.1008C0.723339 18.9249 0.624512 18.6863 0.624512 18.4375C0.624512 18.1888 0.723339 17.9502 0.899252 17.7743L8.67464 10L0.899252 2.22581C0.723339 2.0499 0.624512 1.81131 0.624512 1.56253C0.624512 1.31375 0.723339 1.07516 0.899252 0.899252C1.07516 0.723339 1.31375 0.624512 1.56253 0.624512C1.81131 0.624512 2.0499 0.723339 2.22581 0.899252L10 8.67464L17.7743 0.899252C17.9502 0.723339 18.1888 0.624512 18.4375 0.624512C18.6863 0.624512 18.9249 0.723339 19.1008 0.899252C19.2767 1.07516 19.3756 1.31375 19.3756 1.56253C19.3756 1.81131 19.2767 2.0499 19.1008 2.22581L11.3254 10L19.1008 17.7743Z" fill="#939AB2"/>
</svg>
