<svg width="24" height="24" viewBox="0 0 24 24" fill="none" xmlns="http://www.w3.org/2000/svg">
<path d="M18 9C18 11.6728 15.7059 13.8853 12.75 14.2087V15C12.75 15.1989 12.671 15.3897 12.5303 15.5303C12.3897 15.671 12.1989 15.75 12 15.75C11.8011 15.75 11.6103 15.671 11.4697 15.5303C11.329 15.3897 11.25 15.1989 11.25 15V13.5C11.25 13.3011 11.329 13.1103 11.4697 12.9697C11.6103 12.829 11.8011 12.75 12 12.75C14.4816 12.75 16.5 11.0681 16.5 9C16.5 6.93187 14.4816 5.25 12 5.25C9.51844 5.25 7.5 6.93187 7.5 9C7.5 9.19891 7.42098 9.38968 7.28033 9.53033C7.13968 9.67098 6.94891 9.75 6.75 9.75C6.55109 9.75 6.36032 9.67098 6.21967 9.53033C6.07902 9.38968 6 9.19891 6 9C6 6.105 8.69156 3.75 12 3.75C15.3084 3.75 18 6.105 18 9ZM12 18C11.7033 18 11.4133 18.088 11.1666 18.2528C10.92 18.4176 10.7277 18.6519 10.6142 18.926C10.5006 19.2001 10.4709 19.5017 10.5288 19.7926C10.5867 20.0836 10.7296 20.3509 10.9393 20.5607C11.1491 20.7704 11.4164 20.9133 11.7074 20.9712C11.9983 21.0291 12.2999 20.9994 12.574 20.8858C12.8481 20.7723 13.0824 20.58 13.2472 20.3334C13.412 20.0867 13.5 19.7967 13.5 19.5C13.5 19.1022 13.342 18.7206 13.0607 18.4393C12.7794 18.158 12.3978 18 12 18Z" fill="#939AB2"/>
</svg>
