<svg width="33" height="18" viewBox="0 0 33 18" fill="none" xmlns="http://www.w3.org/2000/svg">
<path d="M15.4845 1.68768C16.0967 2.1652 16.0967 2.1652 16.8374 2.2652C17.3325 2.12296 17.7492 1.75123 18.1586 1.45123C19.4196 0.528005 20.7774 -0.170645 22.3886 0.0366747C23.182 0.163877 23.9116 0.486 24.6317 0.831031C24.6791 0.853698 24.7265 0.876365 24.7753 0.899719C26.3818 1.68807 27.9046 2.79664 29.3024 3.90731C29.4281 4.00722 29.5546 4.10605 29.6815 4.20453C30.3567 4.72956 31.0156 5.27288 31.6625 5.83234C31.7814 5.93513 31.901 6.03611 32.0225 6.13583C32.4073 6.45472 32.6177 6.71671 32.6677 7.22632C32.6486 7.75417 32.3137 8.11404 31.9896 8.5007C31.9613 8.53487 31.933 8.56904 31.9038 8.60425C31.7635 8.77299 31.6214 8.93994 31.4779 9.10598C31.2957 9.31832 31.1242 9.53825 30.953 9.75949C30.6698 10.1242 30.3692 10.4678 30.0566 10.8078C29.9836 10.8907 29.9108 10.9738 29.8384 11.0573C29.5819 11.3513 29.321 11.6412 29.0589 11.9302C29.0305 11.9619 29.0021 11.9935 28.9729 12.0261C28.5265 12.523 28.0608 12.9823 27.5624 13.4267C27.4879 13.4966 27.4879 13.4966 27.4119 13.5678C25.6254 15.2318 23.3386 16.5579 21.0151 17.2928C20.9734 17.3064 20.9316 17.32 20.8886 17.334C17.3433 18.4846 13.437 18.1086 10.103 16.4821C10.0532 16.4582 10.0034 16.4342 9.95203 16.4095C8.71554 15.8084 7.54787 15.0492 6.48642 14.175C6.45425 14.1491 6.42208 14.1231 6.38893 14.0964C5.79665 13.6167 5.25678 13.0831 4.7171 12.546C4.6823 12.5115 4.64751 12.477 4.61166 12.4415C4.21426 12.047 3.83785 11.6482 3.4904 11.2084C3.36453 11.0521 3.23208 10.9045 3.09587 10.7572C2.87722 10.5173 2.6748 10.2692 2.47622 10.0128C2.23946 9.70716 1.99628 9.40904 1.74355 9.11645C1.71263 9.08064 1.68171 9.04482 1.64986 9.00793C1.58824 8.9366 1.52661 8.86529 1.46496 8.79399C1.31521 8.62041 1.1665 8.44598 1.01867 8.27076C0.968272 8.21136 0.917874 8.15196 0.865948 8.09076C0.608825 7.75602 0.660045 7.3453 0.687408 6.94182C0.790041 6.63932 0.954731 6.47165 1.18625 6.25592C1.25123 6.18839 1.31618 6.12084 1.38111 6.05326C1.63885 5.79607 1.92003 5.57136 2.20363 5.34352C2.31821 5.25046 2.4315 5.15597 2.54466 5.06118C3.17149 4.53723 3.81544 4.04087 4.47273 3.55577C4.59901 3.46234 4.72468 3.36818 4.85009 3.27359C8.31201 0.67643 11.6174 -1.21134 15.4845 1.68768ZM9.23285 2.32219C9.10948 2.3877 8.98524 2.45121 8.86079 2.51462C7.5535 3.19658 6.31514 4.08752 5.15359 4.99259C5.05102 5.07213 4.94755 5.15034 4.84376 5.22828C4.37079 5.58482 3.92003 5.9632 3.47347 6.35201C3.29383 6.50796 3.11298 6.6625 2.93219 6.81711C2.98138 6.95189 2.98138 6.95189 3.10635 6.98024C3.24476 7.00431 3.37236 7.01249 3.51278 7.01301C3.59213 7.01332 3.59213 7.01332 3.67309 7.01364C3.73033 7.01341 3.78758 7.01318 3.84657 7.01295C3.93728 7.01271 3.93728 7.01271 4.02984 7.01246C4.75374 7.00737 5.47551 6.96876 6.19803 6.92623C6.30601 6.92001 6.30601 6.92001 6.41616 6.91365C7.63435 6.84271 8.84596 6.73991 10.0587 6.6066C10.7235 6.53363 11.3886 6.46436 12.0537 6.39428C12.2876 6.36953 12.5216 6.3445 12.7555 6.31941C12.9016 6.30385 13.0478 6.28828 13.194 6.27272C13.2593 6.26565 13.3246 6.25858 13.3919 6.2513C14.1532 6.17064 14.9108 6.12142 15.6765 6.11635C15.7536 6.11574 15.8307 6.11513 15.9101 6.1145C16.1594 6.11293 16.4087 6.11208 16.6581 6.11172C16.7224 6.11161 16.7224 6.11161 16.788 6.1115C18.291 6.10976 19.769 6.18837 21.2625 6.35928C21.8551 6.42617 22.4482 6.48775 23.0412 6.55062C23.1968 6.56713 23.3524 6.58371 23.508 6.60034C24.6719 6.72464 25.8314 6.83087 27.0012 6.87947C27.0799 6.88289 27.1585 6.88632 27.2396 6.88985C28.2827 6.93395 29.3244 6.95141 30.3684 6.94182C30.3872 6.75797 30.3872 6.75797 30.29 6.65148C29.6022 5.9724 28.8013 5.42255 28.0171 4.86219C27.8786 4.76257 27.741 4.66184 27.6036 4.56064C24.7316 2.34124 24.7316 2.34124 21.3269 1.57929C20.4003 1.74606 19.6176 2.30062 18.8872 2.86425C18.1044 3.46347 17.2935 3.93465 16.2762 3.82407C15.4376 3.663 14.7266 3.10342 14.0587 2.60035C12.4376 1.38405 10.99 1.38459 9.23285 2.32219ZM14.9044 7.63552C14.804 7.64135 14.804 7.64135 14.7017 7.6473C13.4619 7.7205 12.2247 7.81963 10.9875 7.92731C10.8495 7.93932 10.7114 7.95126 10.5734 7.96319C9.67143 8.04143 8.77007 8.12466 7.87017 8.224C7.76915 8.23473 7.76915 8.23473 7.6661 8.24568C7.6044 8.25275 7.5427 8.25982 7.47913 8.26711C7.42558 8.2731 7.37204 8.2791 7.31688 8.28527C7.1673 8.31462 7.05519 8.36383 6.92291 8.43834C11.6659 10.9982 17.0456 11.5283 22.1616 10.0049C24.3787 9.37269 24.3787 9.37269 26.44 8.37599C26.44 8.35541 26.44 8.33483 26.44 8.31363C24.2655 8.02441 22.0815 7.84969 19.8927 7.70957C19.8338 7.70578 19.7748 7.70199 19.7141 7.69809C18.1033 7.5956 16.5165 7.54075 14.9044 7.63552ZM3.18161 8.37599C3.40056 9.01015 4.00281 9.52884 4.45442 10.014C4.57587 10.1464 4.69487 10.2809 4.81429 10.4152C5.12296 10.7587 5.44605 11.0861 5.77324 11.4119C5.82898 11.4679 5.88473 11.5239 5.94216 11.5815C6.25897 11.8979 6.5819 12.2014 6.92291 12.4914C6.98733 12.5476 7.05172 12.6037 7.11606 12.66C9.37101 14.597 12.0702 15.952 15.0291 16.3574C15.1454 16.3736 15.1454 16.3736 15.2641 16.3901C15.698 16.4436 16.1358 16.435 16.5723 16.4354C16.6456 16.4354 16.6456 16.4354 16.7203 16.4355C17.4807 16.4345 18.2129 16.399 18.9574 16.2327C19.0092 16.2214 19.0609 16.21 19.1142 16.1983C21.7001 15.6176 24.0898 14.3831 26.0659 12.6161C26.1185 12.5697 26.171 12.5232 26.2252 12.4753C26.3811 12.3364 26.5355 12.196 26.6894 12.0549C26.7216 12.0256 26.7538 11.9962 26.7869 11.966C27.3154 11.4834 27.8373 11.0015 28.3041 10.4578C28.442 10.3015 28.5838 10.1495 28.7265 9.99749C29.2055 9.48723 29.6857 8.97266 30.0566 8.37599C29.6897 8.48293 29.358 8.65267 29.0161 8.82027C25.5558 10.4939 21.9067 12.149 18.0221 12.4291C17.9665 12.4332 17.9108 12.4374 17.8535 12.4417C16.2573 12.5536 14.6626 12.4416 13.0961 12.1173C13.0287 12.1034 12.9614 12.0895 12.8921 12.0752C10.1402 11.4918 7.58993 10.3692 5.05226 9.1866C4.81026 9.07392 4.56823 8.96131 4.32606 8.84899C4.18795 8.78489 4.04995 8.72057 3.91207 8.65599C3.85163 8.62789 3.79119 8.5998 3.72892 8.57085C3.67699 8.54657 3.62506 8.5223 3.57156 8.49729C3.44194 8.44292 3.31876 8.40559 3.18161 8.37599Z" fill="#EEF0F2"/>
</svg>
