<svg width="18" height="18" viewBox="0 0 18 18" fill="none" xmlns="http://www.w3.org/2000/svg">
<path d="M14.625 5.625H12.375V3.9375C12.375 3.04239 12.0194 2.18395 11.3865 1.55101C10.7536 0.918079 9.89511 0.5625 9 0.5625C8.10489 0.5625 7.24645 0.918079 6.61351 1.55101C5.98058 2.18395 5.625 3.04239 5.625 3.9375V5.625H3.375C3.07663 5.625 2.79048 5.74353 2.5795 5.9545C2.36853 6.16548 2.25 6.45163 2.25 6.75V14.625C2.25 14.9234 2.36853 15.2095 2.5795 15.4205C2.79048 15.6315 3.07663 15.75 3.375 15.75H14.625C14.9234 15.75 15.2095 15.6315 15.4205 15.4205C15.6315 15.2095 15.75 14.9234 15.75 14.625V6.75C15.75 6.45163 15.6315 6.16548 15.4205 5.9545C15.2095 5.74353 14.9234 5.625 14.625 5.625ZM9.5625 11.1537V12.9375C9.5625 13.0867 9.50324 13.2298 9.39775 13.3352C9.29226 13.4407 9.14918 13.5 9 13.5C8.85082 13.5 8.70774 13.4407 8.60225 13.3352C8.49676 13.2298 8.4375 13.0867 8.4375 12.9375V11.1537C8.06219 11.021 7.74588 10.7599 7.54446 10.4165C7.34304 10.0732 7.26949 9.66966 7.3368 9.27732C7.40412 8.88498 7.60797 8.52907 7.91232 8.27249C8.21667 8.01591 8.60193 7.87518 9 7.87518C9.39807 7.87518 9.78333 8.01591 10.0877 8.27249C10.392 8.52907 10.5959 8.88498 10.6632 9.27732C10.7305 9.66966 10.657 10.0732 10.4555 10.4165C10.2541 10.7599 9.93781 11.021 9.5625 11.1537ZM11.25 5.625H6.75V3.9375C6.75 3.34076 6.98705 2.76847 7.40901 2.34651C7.83097 1.92455 8.40326 1.6875 9 1.6875C9.59674 1.6875 10.169 1.92455 10.591 2.34651C11.0129 2.76847 11.25 3.34076 11.25 3.9375V5.625Z" fill="#414360"/>
</svg>
