<svg width="24" height="24" viewBox="0 0 24 24" fill="currentColor" xmlns="http://www.w3.org/2000/svg">
<path d="M12 22C13.25 22 14.4208 21.7625 15.5125 21.2875C16.6042 20.8125 17.5542 20.1708 18.3625 19.3625C19.1708 18.5542 19.8125 17.6042 20.2875 16.5125C20.7625 15.4208 21 14.25 21 13H19C19 14.95 18.3208 16.6042 16.9625 17.9625C15.6042 19.3208 13.95 20 12 20C10.05 20 8.39583 19.3208 7.0375 17.9625C5.67917 16.6042 5 14.95 5 13C5 11.05 5.67917 9.39583 7.0375 8.0375C8.39583 6.67917 10.05 6 12 6H12.15L10.6 7.55L12 9L16 5L12 1L10.6 2.45L12.15 4H12C10.75 4 9.57917 4.2375 8.4875 4.7125C7.39583 5.1875 6.44583 5.82917 5.6375 6.6375C4.82917 7.44583 4.1875 8.39583 3.7125 9.4875C3.2375 10.5792 3 11.75 3 13C3 14.25 3.2375 15.4208 3.7125 16.5125C4.1875 17.6042 4.82917 18.5542 5.6375 19.3625C6.44583 20.1708 7.39583 20.8125 8.4875 21.2875C9.57917 21.7625 10.75 22 12 22Z"/>
<path d="M9.78 16V11.176L8.272 11.736L8.076 11.156L10.428 10.28H10.484V16H9.78ZM13.4984 16.12C13.1624 16.12 12.8371 16.072 12.5224 15.976C12.2104 15.88 11.9544 15.752 11.7544 15.592L12.0144 14.964C12.1984 15.1187 12.4198 15.2387 12.6784 15.324C12.9398 15.4067 13.1998 15.448 13.4584 15.448C13.7411 15.448 13.9851 15.4013 14.1904 15.308C14.3958 15.212 14.5544 15.076 14.6664 14.9C14.7784 14.7213 14.8344 14.5067 14.8344 14.256C14.8344 14.024 14.7744 13.8253 14.6544 13.66C14.5371 13.492 14.3744 13.364 14.1664 13.276C13.9611 13.1853 13.7278 13.14 13.4664 13.14C13.3038 13.14 13.1344 13.16 12.9584 13.2C12.7824 13.2373 12.6038 13.296 12.4224 13.376L12.1064 13.048L12.3984 10.412L15.4344 10.404V11.068H12.9424L12.7544 12.692C12.9091 12.6387 13.0611 12.5987 13.2104 12.572C13.3624 12.5427 13.5118 12.528 13.6584 12.528C14.0184 12.528 14.3424 12.5973 14.6304 12.736C14.9211 12.8747 15.1504 13.0747 15.3184 13.336C15.4891 13.5973 15.5744 13.9107 15.5744 14.276C15.5744 14.6493 15.4864 14.9747 15.3104 15.252C15.1344 15.5267 14.8904 15.74 14.5784 15.892C14.2691 16.044 13.9091 16.12 13.4984 16.12Z"/>
</svg>
