<svg width="24" height="24" viewBox="0 0 24 24" fill="currentColor" xmlns="http://www.w3.org/2000/svg">
<path d="M21.5307 7.28104L9.53068 19.281C9.46102 19.3508 9.3783 19.4061 9.28726 19.4438C9.19621 19.4816 9.09861 19.501 9.00005 19.501C8.90149 19.501 8.80389 19.4816 8.71285 19.4438C8.6218 19.4061 8.53908 19.3508 8.46943 19.281L3.21943 14.031C3.0787 13.8903 2.99963 13.6994 2.99963 13.5004C2.99963 13.3014 3.0787 13.1105 3.21943 12.9698C3.36016 12.8291 3.55103 12.75 3.75005 12.75C3.94907 12.75 4.13995 12.8291 4.28068 12.9698L9.00005 17.6901L20.4694 6.21979C20.6102 6.07906 20.801 6 21.0001 6C21.1991 6 21.3899 6.07906 21.5307 6.21979C21.6714 6.36052 21.7505 6.55139 21.7505 6.75042C21.7505 6.94944 21.6714 7.14031 21.5307 7.28104Z"/>
</svg>
