<svg width="18" height="18" viewBox="0 0 18 18" fill="currentColor" xmlns="http://www.w3.org/2000/svg">
<path d="M12.9375 12.9375C12.9375 13.5342 12.7004 14.1065 12.2785 14.5285C11.8565 14.9504 11.2842 15.1875 10.6875 15.1875C9.72422 15.1875 8.79258 14.5596 8.47266 13.6955C8.42398 13.5563 8.43185 13.4037 8.49458 13.2703C8.55731 13.1369 8.66988 13.0335 8.80809 12.9823C8.9463 12.931 9.09909 12.9361 9.2336 12.9964C9.36811 13.0566 9.47359 13.1673 9.52734 13.3045C9.68484 13.7299 10.1953 14.0625 10.6875 14.0625C10.9859 14.0625 11.272 13.944 11.483 13.733C11.694 13.522 11.8125 13.2359 11.8125 12.9375C11.8125 12.6391 11.694 12.353 11.483 12.142C11.272 11.931 10.9859 11.8125 10.6875 11.8125H2.8125C2.66332 11.8125 2.52024 11.7532 2.41475 11.6477C2.30926 11.5423 2.25 11.3992 2.25 11.25C2.25 11.1008 2.30926 10.9577 2.41475 10.8523C2.52024 10.7468 2.66332 10.6875 2.8125 10.6875H10.6875C11.2842 10.6875 11.8565 10.9246 12.2785 11.3465C12.7004 11.7685 12.9375 12.3408 12.9375 12.9375ZM8.4375 7.3125C9.03424 7.3125 9.60653 7.07545 10.0285 6.65349C10.4504 6.23153 10.6875 5.65924 10.6875 5.0625C10.6875 4.46576 10.4504 3.89347 10.0285 3.47151C9.60653 3.04955 9.03424 2.8125 8.4375 2.8125C7.47422 2.8125 6.54258 3.44039 6.22266 4.30453C6.17398 4.44365 6.18185 4.59633 6.24458 4.72971C6.30731 4.86309 6.41988 4.96651 6.55809 5.01774C6.6963 5.06897 6.84909 5.06391 6.9836 5.00364C7.11811 4.94337 7.22359 4.83271 7.27734 4.69547C7.43484 4.27008 7.94531 3.9375 8.4375 3.9375C8.73587 3.9375 9.02202 4.05603 9.233 4.267C9.44397 4.47798 9.5625 4.76413 9.5625 5.0625C9.5625 5.36087 9.44397 5.64702 9.233 5.858C9.02202 6.06897 8.73587 6.1875 8.4375 6.1875H1.6875C1.53832 6.1875 1.39524 6.24676 1.28975 6.35225C1.18426 6.45774 1.125 6.60082 1.125 6.75C1.125 6.89918 1.18426 7.04226 1.28975 7.14775C1.39524 7.25324 1.53832 7.3125 1.6875 7.3125H8.4375ZM14.625 5.0625C13.6617 5.0625 12.7301 5.69039 12.4102 6.55453C12.3615 6.69365 12.3693 6.84633 12.4321 6.97971C12.4948 7.11309 12.6074 7.21651 12.7456 7.26774C12.8838 7.31897 13.0366 7.31391 13.1711 7.25364C13.3056 7.19337 13.4111 7.08271 13.4648 6.94547C13.6223 6.52008 14.1328 6.1875 14.625 6.1875C14.9234 6.1875 15.2095 6.30603 15.4205 6.517C15.6315 6.72798 15.75 7.01413 15.75 7.3125C15.75 7.61087 15.6315 7.89702 15.4205 8.108C15.2095 8.31897 14.9234 8.4375 14.625 8.4375H2.25C2.10082 8.4375 1.95774 8.49676 1.85225 8.60225C1.74676 8.70774 1.6875 8.85082 1.6875 9C1.6875 9.14918 1.74676 9.29226 1.85225 9.39775C1.95774 9.50324 2.10082 9.5625 2.25 9.5625H14.625C15.2217 9.5625 15.794 9.32545 16.216 8.90349C16.6379 8.48153 16.875 7.90924 16.875 7.3125C16.875 6.71576 16.6379 6.14347 16.216 5.72151C15.794 5.29955 15.2217 5.0625 14.625 5.0625Z"/>
</svg>
